<svg width="326" height="350" viewBox="0 0 326 350" fill="none" xmlns="http://www.w3.org/2000/svg">
<rect x="23" y="35" width="280" height="280" rx="27" fill="#1481FF"/>
<rect x="104" y="264" width="174" height="19" transform="rotate(-90 104 264)" fill="#F8F8FF"/>
<rect x="176" y="140" width="33" height="19" transform="rotate(-90 176 140)" fill="#F8F8FF"/>
<rect x="231" y="246" width="98" height="19" transform="rotate(-90 231 246)" fill="#F8F8FF"/>
<rect x="250" y="109" width="74" height="19" transform="rotate(-180 250 109)" fill="#F8F8FF"/>
<rect x="250" y="152" width="74" height="19" transform="rotate(-180 250 152)" fill="#F8F8FF"/>
<rect x="239" y="264" width="63" height="18" transform="rotate(-180 239 264)" fill="#F8F8FF"/>
<rect x="149" y="109" width="71" height="19" transform="rotate(-180 149 109)" fill="#F8F8FF"/>
<rect x="59.0964" y="241.917" width="21.706" height="19.2422" transform="rotate(-58.5 59.0964 241.917)" fill="#F8F8FF"/>
<rect x="222.417" y="253.828" width="21.0876" height="19.4266" transform="rotate(-58.5 222.417 253.828)" fill="#F8F8FF"/>
<rect x="104.011" y="264.001" width="46.5077" height="18.492" transform="rotate(-175.5 104.011 264.001)" fill="#F8F8FF"/>
</svg>
