<svg width="326" height="350" viewBox="0 0 326 350" fill="none" xmlns="http://www.w3.org/2000/svg">
<rect x="23" y="35" width="280" height="280" rx="27" fill="#1481FF"/>
<path d="M84.7636 193.886L93.0888 225.763L101.384 193.886H113.009V237.964H104.078V226.036L104.895 207.66L96.0859 237.964H90.0312L81.2216 207.66L82.039 226.036V237.964H73.1386V193.886H84.7636ZM130.265 223.705L134.624 205.208H143.767L132.989 242.868C131.375 248.418 128.337 251.193 123.877 251.193C122.848 251.193 121.677 251.001 120.365 250.618V243.928L121.364 243.958C122.696 243.958 123.695 243.695 124.361 243.171C125.047 242.666 125.562 241.778 125.905 240.507L126.571 238.297L117.126 205.208H126.329L130.265 223.705Z" fill="#F8F8FF"/>
<path d="M250.914 185.221C247.669 182.727 243.194 181.215 238.456 179.613C233.356 177.893 228.117 176.123 224.858 173.182C232.464 168.935 241.799 162.628 242.249 162.325C243.051 161.782 243.529 160.868 243.517 159.896C243.508 158.925 243.012 158.022 242.197 157.496C241.471 157.029 224.472 146.222 202.135 145.29C200.696 143.781 199 141.8 197.032 139.51C183.163 123.358 154.374 89.8393 108.401 98.4704C104.125 97.1734 93.0164 94.0953 88.3667 95.5467C82.5967 97.3477 80.8986 100.592 82.6902 106.393C83.5623 109.216 86.8676 111.803 92.1875 115.793C94.7879 117.743 99.1402 121.007 99.6324 122.277C101.027 126.792 110.752 139.784 117.923 144.401C117.872 144.769 117.819 145.131 117.768 145.489C116.966 151.13 116.209 156.459 119.607 167.461C124.083 181.95 133.328 187.376 140.146 185.248C144.377 183.927 144.992 178.442 144.26 172.474C150.389 178.97 159.618 187.045 170.11 190.466C171.62 190.951 173.241 190.121 173.732 188.608C174.22 187.088 173.395 185.462 171.884 184.967C155.247 179.544 141.301 159.993 141.16 159.794C140.344 158.637 138.785 158.249 137.544 158.876C136.278 159.504 135.654 160.967 136.072 162.321C138.413 169.897 139.469 178.417 138.441 179.73C134.483 180.966 128.253 175.972 125.095 165.748C122.08 155.987 122.688 151.716 123.456 146.307C123.6 145.296 123.749 144.257 123.877 143.159C124.024 141.894 123.332 140.68 122.17 140.171C116.81 137.831 106.253 124.228 105.121 120.564C104.249 117.74 100.943 115.154 95.6236 111.164C93.0232 109.213 88.6708 105.949 88.1786 104.679C87.3264 101.92 87.3264 101.92 90.0708 101.064C92.2953 100.369 100.794 102.15 107.392 104.202C107.844 104.342 108.325 104.369 108.793 104.276C151.906 95.8048 178.434 126.692 192.683 143.287C195.084 146.082 197.158 148.498 198.882 150.199C199.402 150.713 200.096 151.007 200.821 151.026C215.96 151.416 228.867 156.949 235.1 160.137C230.833 162.914 223.988 167.248 219.104 169.718C218.387 170.08 217.853 170.728 217.633 171.503C217.412 172.278 217.521 173.109 217.939 173.797C221.722 180.059 229.641 182.733 236.625 185.09C240.899 186.533 244.935 187.896 247.418 189.809C248.189 190.402 249.16 190.541 250.021 190.273C250.57 190.101 251.071 189.765 251.448 189.272C252.411 188.005 252.174 186.192 250.914 185.221ZM111.649 112.477C112.12 114.001 113.729 114.852 115.246 114.379C116.76 113.906 118.372 114.759 118.843 116.281C119.314 117.806 120.922 118.657 122.439 118.183C123.956 117.71 124.802 116.093 124.331 114.568C122.922 110.004 118.082 107.444 113.542 108.861C112.025 109.335 111.178 110.952 111.649 112.477Z" fill="#F8F8FF"/>
<rect x="152.655" y="184.207" width="110.345" height="71.6375" rx="14" fill="#F8F8FF"/>
<path d="M179.479 229.487C179.479 227.691 179.015 226.339 178.087 225.431C177.179 224.502 175.514 223.544 173.092 222.555C168.672 220.88 165.493 218.922 163.556 216.682C161.618 214.421 160.649 211.757 160.649 208.689C160.649 204.976 161.961 201.999 164.585 199.759C167.229 197.498 170.579 196.368 174.636 196.368C177.34 196.368 179.752 196.943 181.871 198.094C183.99 199.224 185.615 200.828 186.745 202.907C187.896 204.986 188.471 207.347 188.471 209.991H179.601C179.601 207.933 179.157 206.368 178.269 205.299C177.401 204.209 176.139 203.664 174.484 203.664C172.93 203.664 171.719 204.128 170.852 205.057C169.984 205.965 169.55 207.196 169.55 208.75C169.55 209.961 170.034 211.061 171.003 212.05C171.972 213.019 173.687 214.028 176.149 215.077C180.448 216.631 183.566 218.538 185.504 220.799C187.462 223.059 188.44 225.935 188.44 229.427C188.44 233.261 187.219 236.258 184.777 238.418C182.335 240.577 179.015 241.657 174.817 241.657C171.972 241.657 169.378 241.072 167.037 239.901C164.696 238.731 162.859 237.056 161.527 234.876C160.215 232.696 159.56 230.123 159.56 227.156H168.49C168.49 229.699 168.985 231.546 169.974 232.696C170.963 233.847 172.577 234.422 174.817 234.422C177.925 234.422 179.479 232.777 179.479 229.487ZM225.344 222.434C225.344 229.719 223.376 235.017 219.44 238.327L225.525 243.776L219.925 248.923L211.812 241.506L209.48 241.657C204.495 241.657 200.59 239.972 197.765 236.602C194.959 233.211 193.547 228.529 193.526 222.555V215.652C193.526 209.598 194.929 204.875 197.734 201.484C200.54 198.074 204.435 196.368 209.42 196.368C214.284 196.368 218.129 198.003 220.954 201.272C223.78 204.542 225.243 209.133 225.344 215.047V222.434ZM216.413 215.592C216.413 211.576 215.838 208.609 214.688 206.691C213.537 204.774 211.781 203.815 209.42 203.815C207.059 203.815 205.313 204.754 204.183 206.631C203.052 208.488 202.467 211.323 202.427 215.138V222.434C202.427 226.47 203.002 229.447 204.152 231.364C205.323 233.282 207.099 234.24 209.48 234.24C211.801 234.24 213.527 233.292 214.657 231.395C215.808 229.477 216.393 226.561 216.413 222.646V215.592ZM240.662 233.665H256.283V241.052H231.762V196.974H240.662V233.665Z" fill="#1481FF"/>
</svg>
