<svg width="326" height="350" viewBox="0 0 326 350" fill="none" xmlns="http://www.w3.org/2000/svg">
<rect x="24" y="32" width="280" height="280" rx="27" fill="#1481FF"/>
<path d="M119.201 123.203H140.16V195.062C140.16 205.138 137.356 213.217 131.748 219.301C126.14 225.384 118.916 228.426 110.076 228.426C100.571 228.426 93.1807 225.598 87.9053 219.942C82.6299 214.287 79.9922 206.421 79.9922 196.346H101.022C101.022 206.136 104.04 211.031 110.076 211.031C116.16 211.031 119.201 205.376 119.201 194.064V123.203Z" fill="#F8F8FF"/>
<rect x="119.596" y="243.532" width="44.3483" height="19.4973" transform="rotate(18.5 119.596 243.532)" fill="#F8F8FF"/>
<path d="M199.22 200.302C199.22 196.776 197.89 193.746 195.23 191.21C192.571 188.674 187.438 185.705 179.83 182.304C170.986 178.655 164.739 175.531 161.09 172.934C157.503 170.336 154.812 167.398 153.019 164.12C151.225 160.78 150.328 156.822 150.328 152.245C150.328 144.081 153.297 137.309 159.234 131.928C165.234 126.485 172.872 123.764 182.149 123.764C191.922 123.764 199.776 126.609 205.714 132.299C211.651 137.989 214.62 145.287 214.62 154.193H198.292C198.292 149.678 196.777 145.844 193.746 142.689C190.715 139.473 186.85 137.865 182.149 137.865C177.325 137.865 173.521 139.133 170.738 141.669C168.017 144.143 166.656 147.483 166.656 151.688C166.656 155.028 167.646 157.719 169.625 159.76C171.666 161.801 176.521 164.491 184.19 167.831C196.375 172.593 204.662 177.263 209.054 181.84C213.445 186.355 215.641 192.107 215.641 199.096C215.641 207.816 212.641 214.805 206.642 220.062C200.642 225.258 192.602 227.855 182.521 227.855C172.068 227.855 163.595 224.856 157.101 218.856C150.606 212.857 147.359 205.25 147.359 196.034H163.873C164.059 201.601 165.759 205.961 168.976 209.115C172.192 212.27 176.707 213.847 182.521 213.847C187.963 213.847 192.107 212.641 194.952 210.229C197.797 207.755 199.22 204.446 199.22 200.302Z" fill="#F8F8FF"/>
<rect x="80" y="199" width="95" height="21" transform="rotate(-90 80 199)" fill="#F8F8FF"/>
<path d="M224 239V94H245V239H224Z" fill="#F8F8FF"/>
<rect x="80.0021" y="104" width="96.8966" height="19.1984" transform="rotate(-22.5 80.0021 104)" fill="#F8F8FF"/>
<rect x="148" y="258.081" width="96.9165" height="19.4974" transform="rotate(-22.5 148 258.081)" fill="#F8F8FF"/>
<rect x="169.566" y="67" width="80.3068" height="19.1984" transform="rotate(20 169.566 67)" fill="#F8F8FF"/>
</svg>
