<svg width="100" height="100" viewBox="0 0 100 100" fill="none" xmlns="http://www.w3.org/2000/svg">
<circle cx="50" cy="50" r="50" fill="#1481FF"/>
<rect x="20" y="20" width="60" height="56.6038" rx="7" fill="white"/>
<path d="M37.5469 66H29.625V40.6406H37.5469V66ZM29.1562 34.1016C29.1562 32.9766 29.5625 32.0547 30.375 31.3359C31.1875 30.6172 32.2422 30.2578 33.5391 30.2578C34.8359 30.2578 35.8906 30.6172 36.7031 31.3359C37.5156 32.0547 37.9219 32.9766 37.9219 34.1016C37.9219 35.2266 37.5156 36.1484 36.7031 36.8672C35.8906 37.5859 34.8359 37.9453 33.5391 37.9453C32.2422 37.9453 31.1875 37.5859 30.375 36.8672C29.5625 36.1484 29.1562 35.2266 29.1562 34.1016ZM49.6875 40.6406L49.9453 43.6172C51.6953 41.3203 54.1094 40.1719 57.1875 40.1719C59.8281 40.1719 61.7969 40.9609 63.0938 42.5391C64.4062 44.1172 65.0859 46.4922 65.1328 49.6641V66H57.2109V49.9922C57.2109 48.7109 56.9531 47.7734 56.4375 47.1797C55.9219 46.5703 54.9844 46.2656 53.625 46.2656C52.0781 46.2656 50.9297 46.875 50.1797 48.0938V66H42.2812V40.6406H49.6875Z" fill="#1481FF"/>
</svg>
